<?xml version="1.0" encoding="UTF-8"?><svg id="Layer_2" xmlns="http://www.w3.org/2000/svg" viewBox="0 0 507.08 507.08"><defs><style>.cls-1,.cls-2{fill:#fff;}.cls-1,.cls-2,.cls-3,.cls-4{stroke-miterlimit:10;}.cls-1,.cls-4{stroke:#231f20;stroke-width:8px;}.cls-2{stroke:#000102;}.cls-3{fill:#ed1c24;stroke:#fff;}</style></defs><g id="Layer_4"><path class="cls-4" d="m503.08,253.54H4C4,115.72,115.72,4,253.54,4s249.54,111.72,249.54,249.54Z"/><path class="cls-1" d="m503.08,253.54c0,137.82-111.72,249.54-249.54,249.54S4,391.36,4,253.54h499.08Z"/></g><g id="Layer_2-2"><g id="Layer_1-2"><path class="cls-3" d="m410.97,349.49c-2.13-2.4-4.56-4.5-7.31-6.29,1.21-.98,2.36-2.06,3.41-3.21,5.93-6.5,8.95-15.36,8.95-26.29,0-14.25-4.98-25.25-14.82-32.66-9.31-7.01-22.33-10.42-39.8-10.42h-52.82v146.02l-39.34-145.82h-45.57l-31.31,116.01h-63.34v-116.01h-42.92v155.67h139.18l8.46-34.72h25.25l8.66,34.72h93.77c20.26,0,34.75-3.49,44.33-10.63,10.13-7.58,15.28-19.53,15.28-35.53,0-12.93-3.38-23.28-10.03-30.83Zm-168.13,4.2l3.57-15.74,3.61,15.74h-7.18Zm107.74-45.75h10.82c6.82,0,9.25,1.46,9.97,2.06,1.57,1.35,1.9,4.43,1.9,6.8,0,3.28-.62,5.65-1.77,6.6-.52.47-2.89,1.96-10.1,1.96h-10.82v-17.43Zm24.49,78.44c-.95.81-4.23,2.71-13.67,2.71h-10.82v-26.4h10.82c8.59,0,12,1.9,13.28,3.05,2.49,2.23,3.02,7.07,3.02,10.73,0,4.94-.92,8.46-2.62,9.92Z"/></g><path class="cls-2" d="m146.76,240.79v-55.52h-1.27c-4.63,0-8.75,7.22-10.79,11.52-.86,1.82-1.56,3.26-2.09,4.31l-19.26,39.68h-48.4l31.46-61.54c1.99-3.92,3.79-7.04,5.49-9.5-3.99-2.12-7.43-4.9-10.29-8.32-5.93-7.08-8.94-16.46-8.94-27.89,0-16.76,5-29.25,14.86-37.14,9.51-7.6,24.05-11.3,44.43-11.3h48.48v155.69h-43.68Zm-5.57-117.15c-7.85,0-10.63,1.72-11.47,2.46-1.57,1.39-2.43,4.6-2.43,9.04s.88,7.67,2.48,9.09c.84.75,3.65,2.5,11.42,2.5h5.57v-23.1h-5.57Zm111.43,116.56c-18.4,0-32.56-7.04-42.1-20.91-8.92-12.98-13.44-31.92-13.44-56.3s4.4-43.22,13.44-56.39c9.54-13.88,23.71-20.92,42.1-20.92s32.65,7.04,42.19,20.92c9.04,13.16,13.44,31.61,13.44,56.39s-4.52,43.32-13.44,56.29c-9.54,13.88-23.74,20.92-42.19,20.92Zm0-115.98c-2.86,0-5.85.78-8.35,6.48-1.9,4.33-4.17,13.46-4.17,32.29s2.27,27.87,4.17,32.2c2.5,5.7,5.49,6.48,8.35,6.48s5.94-.79,8.44-6.48c1.9-4.33,4.17-13.44,4.17-32.2s-2.27-27.96-4.17-32.29c-2.5-5.69-5.53-6.48-8.44-6.48Zm141.12,116.57l-19.32-39.8c-.47-.93-1.17-2.37-2.04-4.21-2.04-4.29-6.16-11.51-10.79-11.51h-1.27v55.52h-43.68V85.11h48.48c20.39,0,34.92,3.7,44.44,11.3,9.86,7.88,14.86,20.38,14.86,37.14,0,11.43-3.01,20.81-8.94,27.89-2.86,3.42-6.3,6.19-10.29,8.32,1.69,2.46,3.5,5.59,5.5,9.52l31.45,61.53h-48.4Zm-27.85-94.05c7.76,0,10.57-1.75,11.42-2.51,1.59-1.42,2.48-4.65,2.48-9.09s-.86-7.65-2.43-9.04c-.83-.74-3.62-2.46-11.47-2.46h-5.57v23.1h5.57Z"/></g></svg>